<svg xmlns="http://www.w3.org/2000/svg" viewBox="0 0 124.116 124.116"><path d="M103.341 3.524l-34 34 17.101 17.1 34.1-34c4.7-4.7 4.7-12.4 0-17.1a12.256 12.256 0 0 0-17.201 0z"/><path d="M80.241 60.924l-17.2-17.1-2.8-2.8c-1.3-1.3-1.8-3.1-1.3-4.8.8-3 1.1-6.2.8-9.5-.3-3.7-1.3-7.3-3-10.6-1.6-3.2-3.9-6.1-6.6-8.5-2.7-2.4-5.9-4.3-9.301-5.5-4.5-1.6-9.3-2-14-1.3-2.399.4-3.399 3.4-1.6 5.1l11.7 11.7c4.7 4.7 5 12.7.3 17.4-2.4 2.4-5.5 3.5-8.6 3.5-3.101 0-6.2-1.2-8.601-3.6l-12-11.8c-.6-.6-1.4-.9-2.1-.9-1.4 0-2.8 1-3 2.6-.2 1.3-.3 2.6-.3 3.9-.3 14.2 11.6 27.6 25.899 28.9.9.1 1.8.1 2.7.1 2.5 0 4.8-.3 7.1-.9 1.801-.4 3.601.1 4.9 1.4l2.7 2.7 4.8 4.8 7.1 7.101 5.2 5.199 38.8 38.801c2.4 2.399 5.5 3.6 8.601 3.6 3.1 0 6.2-1.2 8.6-3.6 4.7-4.7 4.7-12.4 0-17.101l-38.798-38.8z"/><path d="M30.541 105.925l-.2-2.5c-.1-1.3.4-2.5 1.301-3.4l11.699-11.699a.784.784 0 0 1 1.101 0 6.038 6.038 0 0 0 8.6 0l3.9-3.9-4.8-4.8-3.801-3.8-3.8-3.801-4.8-4.8-3.9 3.9a6.038 6.038 0 0 0 0 8.6c.301.3.301.8 0 1.101l-11.8 11.699c-.899.9-2.1 1.4-3.399 1.301l-2.5-.2c-1-.101-1.9.3-2.601 1.1l-14.799 18.2c-1 1.2-.9 3 .2 4.1l3.1 3.101 3.1 3.1c1.1 1.101 2.8 1.2 4.1.2l18.2-14.8c.7-.802 1.099-1.702 1.099-2.702z"/></svg>