<svg width="20" height="20" xmlns="http://www.w3.org/2000/svg" viewBox="0 0 64.002 64.002"><path d="M54.628 9.375C48.584 3.33 40.548.001 32.001.001c-8.548 0-16.583 3.329-22.627 9.374C3.329 15.419 0 23.454 0 32.001s3.329 16.582 9.374 22.626c6.044 6.045 14.079 9.374 22.627 9.374 8.547 0 16.583-3.329 22.627-9.374 6.045-6.044 9.374-14.079 9.374-22.626s-3.329-16.582-9.374-22.626zm-1.414 43.838c-5.666 5.667-13.2 8.788-21.213 8.788-8.014 0-15.547-3.121-21.213-8.788C5.121 47.547 2 40.014 2 32.001s3.121-15.546 8.788-21.212c5.666-5.667 13.199-8.788 21.213-8.788 8.013 0 15.547 3.121 21.213 8.788 5.667 5.666 8.788 13.199 8.788 21.212s-3.121 15.546-8.788 21.212z"/><path d="M31.001 16.001H23v18h-4v2L23 36v4.001h-4v2h4v6h2v-6h7v-2h-7v-4.002l5.909-.002c.054.005.392.033.923.033 1.749 0 5.594-.308 8.304-2.784 1.9-1.735 2.864-4.173 2.864-7.245s-.964-5.51-2.864-7.245c-3.533-3.229-8.996-2.773-9.135-2.755zm7.795 15.762c-2.875 2.633-7.655 2.248-7.795 2.238H25V18l6.091-.003c.047-.005 4.806-.403 7.696 2.235C40.256 21.573 41 23.515 41 26.001c.001 2.482-.741 4.421-2.204 5.762z"/></svg>