<svg xmlns="http://www.w3.org/2000/svg" viewBox="0 0 64 64"><g fill="#1D1D1B"><path d="M32 0C14.355 0 0 14.355 0 32s14.355 32 32 32 32-14.355 32-32S49.645 0 32 0zm0 60C16.561 60 4 47.439 4 32S16.561 4 32 4s28 12.561 28 28-12.561 28-28 28z"/><circle cx="20.518" cy="21.361" r="4.338"/><circle cx="43.48" cy="21.361" r="4.338"/><path d="M52.541 36.568a2.003 2.003 0 0 0-2.488 1.344c-.035.119-3.739 11.947-18.053 11.947-14.219 0-17.904-11.467-18.055-11.955a2.004 2.004 0 0 0-2.486-1.336 2 2 0 0 0-1.344 2.489c.045.148 4.627 14.802 21.885 14.802s21.84-14.654 21.885-14.803a2 2 0 0 0-1.344-2.488z"/></g></svg>